<svg xmlns="http://www.w3.org/2000/svg" viewBox="0 0 200 200">
  <!-- Body -->
  <path d="M70,70 Q100,60 130,70 L120,180 Q100,190 80,180 Z" fill="#4B0082" />
  <!-- Arms -->
  <path d="M70,70 Q60,130 80,180" stroke="#4B0082" stroke-width="15" fill="none" />
  <path d="M130,70 Q140,130 120,180" stroke="#4B0082" stroke-width="15" fill="none" />
  <!-- Wizard hat -->
  <path d="M60,70 L100,10 L140,70 Z" fill="#8A2BE2" />
  <ellipse cx="100" cy="70" rx="40" ry="8" fill="#9370DB" />
  <!-- Face -->
  <circle cx="100" cy="50" r="20" fill="#FFE4B5" />
  <path d="M90,45 Q95,40 100,45 Q105,40 110,45" fill="none" stroke="black" stroke-width="2" />
  <circle cx="93" cy="40" r="3" fill="black" />
  <circle cx="107" cy="40" r="3" fill="black" />
  <!-- Staff -->
  <line x1="140" y1="80" x2="160" y2="170" stroke="#8B4513" stroke-width="6" />
  <!-- Magical orb -->
  <circle cx="160" cy="170" r="12" fill="#9370DB">
    <animate attributeName="r" values="12;15;12" dur="2s" repeatCount="indefinite" />
    <animate attributeName="fill" values="#9370DB;#FF69B4;#9370DB" dur="2s" repeatCount="indefinite" />
  </circle>
  <!-- Fireball spell -->
  <g>
    <animateTransform attributeName="transform" attributeType="XML" type="translate"
    from="160,170" to="250,170" dur="1.5s" repeatCount="indefinite" />
    <circle r="8" fill="orange">
      <animate attributeName="r" values="8;12;8" dur="0.5s" repeatCount="indefinite" />
    </circle>
    <circle r="12" fill="yellow" opacity="0.7">
      <animate attributeName="r" values="12;16;12" dur="0.5s" repeatCount="indefinite" />
    </circle>
  </g>
</svg>