<svg xmlns="http://www.w3.org/2000/svg" viewBox="0 0 200 300">
  <!-- Body -->
  <path d="M70,120 Q100,110 130,120 L120,280 Q100,290 80,280 Z" fill="#4B0082" />
  
  <!-- Arms -->
  <path d="M70,120 Q60,180 80,280" stroke="#4B0082" stroke-width="15" fill="none" />
  <path d="M130,120 Q140,180 120,280" stroke="#4B0082" stroke-width="15" fill="none" />
  
  <!-- Wizard hat -->
  <path d="M60,120 L100,20 L140,120 Z" fill="#8A2BE2" />
  <ellipse cx="100" cy="120" rx="50" ry="10" fill="#9370DB" />
  
  <!-- Face -->
  <circle cx="100" cy="90" r="25" fill="#FFE4B5" />
  <path d="M90,85 Q95,80 100,85 Q105,80 110,85" fill="none" stroke="black" stroke-width="2" />
  <circle cx="93" cy="80" r="3" fill="black" />
  <circle cx="107" cy="80" r="3" fill="black" />
  
  <!-- Staff -->
  <line x1="140" y1="130" x2="160" y2="260" stroke="#8B4513" stroke-width="6" />
  
  <!-- Magical orb -->
  <circle cx="160" cy="260" r="15" fill="#9370DB">
    <animate attributeName="r" values="15;20;15" dur="2s" repeatCount="indefinite" />
    <animate attributeName="fill" values="#9370DB;#FF69B4;#9370DB" dur="2s" repeatCount="indefinite" />
  </circle>
  
  <!-- Fireball spell -->
  <g>
    <animateTransform attributeName="transform" attributeType="XML" type="translate" 
      from="160,260" to="300,260" dur="1.5s" repeatCount="indefinite" />
    <circle r="10" fill="orange">
      <animate attributeName="r" values="10;15;10" dur="0.5s" repeatCount="indefinite" />
    </circle>
    <circle r="15" fill="yellow" opacity="0.7">
      <animate attributeName="r" values="15;20;15" dur="0.5s" repeatCount="indefinite" />
    </circle>
  </g>
</svg>
