<svg xmlns="http://www.w3.org/2000/svg" viewBox="0 0 200 200">
  <defs>
    <radialGradient id="helmetGradient" cx="50%" cy="50%" r="50%" fx="50%" fy="50%">
      <stop offset="0%" style="stop-color:rgb(200,200,200);stop-opacity:1" />
      <stop offset="100%" style="stop-color:rgb(100,100,100);stop-opacity:1" />
    </radialGradient>
  </defs>
  <!-- Body -->
  <path d="M70,70 Q100,60 130,70 L140,180 Q100,190 60,180 Z" fill="#A52A2A" />
  <!-- Arms -->
  <path d="M70,70 Q50,130 60,180" stroke="#A52A2A" stroke-width="20" fill="none" />
  <path d="M130,70 Q150,130 140,180" stroke="#A52A2A" stroke-width="20" fill="none" />
  <!-- Helmet -->
  <path d="M60,40 Q100,10 140,40 L140,70 Q100,90 60,70 Z" fill="url(#helmetGradient)" />
  <!-- Face guard -->
  <path d="M80,55 L120,55 M100,55 L100,70" stroke="black" stroke-width="5" fill="none" />
  <!-- Sword -->
  <g transform="translate(140, 130) rotate(45)">
    <animateTransform attributeName="transform" attributeType="XML" type="rotate"
    from="45 0 0" to="90 0 0" dur="1s" repeatCount="indefinite" additive="sum" />
    <rect x="-5" y="0" width="10" height="80" fill="#8B4513" />
    <polygon points="-15,-8 15,-8 0,40" fill="#C0C0C0" />
  </g>
  <!-- Shield -->
  <path d="M40,110 Q65,100 65,140 Q40,160 40,110" fill="#DEB887" stroke="#8B4513" stroke-width="5" />
  <!-- Whirlwind effect -->
  <circle cx="100" cy="130" r="65" stroke="#87CEEB" stroke-width="5" fill="none" opacity="0.5">
    <animate attributeName="r" values="65;80;65" dur="2s" repeatCount="indefinite" />
    <animate attributeName="opacity" values="0.5;0;0.5" dur="2s" repeatCount="indefinite" />
  </circle>
</svg>