<svg xmlns="http://www.w3.org/2000/svg" viewBox="0 0 200 300">
  <defs>
    <radialGradient id="helmetGradient" cx="50%" cy="50%" r="50%" fx="50%" fy="50%">
      <stop offset="0%" style="stop-color:rgb(200,200,200);stop-opacity:1" />
      <stop offset="100%" style="stop-color:rgb(100,100,100);stop-opacity:1" />
    </radialGradient>
  </defs>
  
  <!-- Body -->
  <path d="M70,120 Q100,110 130,120 L140,280 Q100,290 60,280 Z" fill="#A52A2A" />
  
  <!-- Arms -->
  <path d="M70,120 Q50,180 60,280" stroke="#A52A2A" stroke-width="20" fill="none" />
  <path d="M130,120 Q150,180 140,280" stroke="#A52A2A" stroke-width="20" fill="none" />
  
  <!-- Helmet -->
  <path d="M60,80 Q100,40 140,80 L140,120 Q100,140 60,120 Z" fill="url(#helmetGradient)" />
  
  <!-- Face guard -->
  <path d="M80,100 L120,100 M100,100 L100,120" stroke="black" stroke-width="5" fill="none" />
  
  <!-- Sword -->
  <g transform="translate(140, 200) rotate(45)">
    <animateTransform attributeName="transform" attributeType="XML" type="rotate" 
      from="45 0 0" to="90 0 0" dur="1s" repeatCount="indefinite" additive="sum" />
    <rect x="-5" y="0" width="10" height="100" fill="#8B4513" />
    <polygon points="-20,-10 20,-10 0,60" fill="#C0C0C0" />
  </g>
  
  <!-- Shield -->
  <path d="M40,180 Q70,170 70,220 Q40,240 40,180" fill="#DEB887" stroke="#8B4513" stroke-width="5" />
  
  <!-- Whirlwind effect -->
  <circle cx="100" cy="200" r="80" stroke="#87CEEB" stroke-width="5" fill="none" opacity="0.5">
    <animate attributeName="r" values="80;100;80" dur="2s" repeatCount="indefinite" />
    <animate attributeName="opacity" values="0.5;0;0.5" dur="2s" repeatCount="indefinite" />
  </circle>
</svg>
