<svg xmlns="http://www.w3.org/2000/svg" viewBox="0 0 100 100">
  <defs>
    <linearGradient id="metallic" x1="0%" y1="0%" x2="100%" y2="100%">
      <stop offset="0%" style="stop-color:#e0e0e0;stop-opacity:1" />
      <stop offset="50%" style="stop-color:#b0b0b0;stop-opacity:1" />
      <stop offset="100%" style="stop-color:#808080;stop-opacity:1" />
    </linearGradient>
    <filter id="inner-shadow" x="-50%" y="-50%" width="200%" height="200%">
      <feGaussianBlur in="SourceAlpha" stdDeviation="3" result="blur" />
      <feOffset dy="3" dx="3" />
      <feComposite in2="SourceAlpha" operator="arithmetic" k2="-1" k3="1" result="shadowDiff" />
      <feFlood flood-color="#000000" flood-opacity="0.75" />
      <feComposite in2="shadowDiff" operator="in" />
      <feComposite in2="SourceGraphic" operator="over" />
    </filter>
  </defs>
  
  <!-- Background -->
  <circle cx="50" cy="50" r="48" fill="#f0f0f0" />
  
  <!-- Stylized Shield -->
  <path d="M25 20 L75 20 Q85 50 75 80 L25 80 Q15 50 25 20 Z" fill="url(#metallic)" stroke="#404040" stroke-width="2" filter="url(#inner-shadow)" />
  
  <!-- Hammer -->
  <path d="M40 10 L60 10 L65 40 L35 40 Z" fill="#8b4513" stroke="#4a2706" stroke-width="2" />
  <rect x="47" y="40" width="6" height="30" fill="#8b4513" stroke="#4a2706" stroke-width="1" />
  
  <!-- Impact point and cracks -->
  <circle cx="50" cy="50" r="15" fill="#ff6347" opacity="0.7">
    <animate attributeName="r" values="10;15;12" dur="0.5s" repeatCount="indefinite" />
    <animate attributeName="opacity" values="0.7;0.9;0.7" dur="0.5s" repeatCount="indefinite" />
  </circle>
  <path d="M40 45 L60 55" fill="none" stroke="#ff0000" stroke-width="3" />
  <path d="M40 55 L60 45" fill="none" stroke="#ff0000" stroke-width="3" />
  <path d="M35 50 L65 50" fill="none" stroke="#ff0000" stroke-width="3" />
  
  <!-- Shattered pieces -->
  <path d="M48 48 L45 42 L40 45 Z" fill="url(#metallic)" stroke="#404040" stroke-width="1" />
  <path d="M52 52 L58 54 L55 60 Z" fill="url(#metallic)" stroke="#404040" stroke-width="1" />
  <path d="M53 47 L60 45 L57 40 Z" fill="url(#metallic)" stroke="#404040" stroke-width="1" />
</svg>
