<svg xmlns="http://www.w3.org/2000/svg" viewBox="0 0 100 100">
  <defs>
    <radialGradient id="rage-aura" cx="50%" cy="50%" r="50%" fx="50%" fy="50%">
      <stop offset="0%" style="stop-color:#ff4500;stop-opacity:0.8" />
      <stop offset="100%" style="stop-color:#8b0000;stop-opacity:0.2" />
    </radialGradient>
    <filter id="glow" x="-50%" y="-50%" width="200%" height="200%">
      <feGaussianBlur in="SourceGraphic" stdDeviation="2" result="blur" />
      <feMerge>
        <feMergeNode in="blur" />
        <feMergeNode in="SourceGraphic" />
      </feMerge>
    </filter>
  </defs>
  
  <!-- Background -->
  <circle cx="50" cy="50" r="48" fill="#f0f0f0" />
  
  <!-- Rage aura -->
  <circle cx="50" cy="50" r="45" fill="url(#rage-aura)">
    <animate attributeName="r" values="43;45;44" dur="0.8s" repeatCount="indefinite" />
  </circle>
  
  <!-- Berserker silhouette -->
  <path d="M35 70 Q50 60 65 70 Q60 80 50 85 Q40 80 35 70 Z" fill="#8b0000" /> <!-- Chest -->
  <circle cx="50" cy="45" r="15" fill="#8b0000" /> <!-- Head -->
  <path d="M30 60 Q25 50 35 45 Q30 55 30 60 Z" fill="#8b0000" /> <!-- Left arm -->
  <path d="M70 60 Q75 50 65 45 Q70 55 70 60 Z" fill="#8b0000" /> <!-- Right arm -->
  
  <!-- Glowing eyes -->
  <circle cx="45" cy="42" r="2" fill="#ffff00" filter="url(#glow)">
    <animate attributeName="opacity" values="0.5;1;0.5" dur="0.5s" repeatCount="indefinite" />
  </circle>
  <circle cx="55" cy="42" r="2" fill="#ffff00" filter="url(#glow)">
    <animate attributeName="opacity" values="0.5;1;0.5" dur="0.5s" repeatCount="indefinite" />
  </circle>
  
  <!-- Weapons -->
  <path d="M20 70 L30 60 L25 80 Z" fill="#a0522d" /> <!-- Left axe -->
  <path d="M80 70 L70 60 L75 80 Z" fill="#a0522d" /> <!-- Right axe -->
  
  <!-- Fury lines -->
  <g stroke="#ff4500" stroke-width="2" stroke-linecap="round" filter="url(#glow)">
    <line x1="20" y1="20" x2="30" y2="30">
      <animate attributeName="x2" values="30;32;30" dur="0.5s" repeatCount="indefinite" />
      <animate attributeName="y2" values="30;32;30" dur="0.5s" repeatCount="indefinite" />
    </line>
    <line x1="80" y1="20" x2="70" y2="30">
      <animate attributeName="x2" values="70;68;70" dur="0.5s" repeatCount="indefinite" />
      <animate attributeName="y2" values="30;32;30" dur="0.5s" repeatCount="indefinite" />
    </line>
    <line x1="20" y1="80" x2="30" y2="70">
      <animate attributeName="x2" values="30;32;30" dur="0.5s" repeatCount="indefinite" />
      <animate attributeName="y2" values="70;68;70" dur="0.5s" repeatCount="indefinite" />
    </line>
    <line x1="80" y1="80" x2="70" y2="70">
      <animate attributeName="x2" values="70;68;70" dur="0.5s" repeatCount="indefinite" />
      <animate attributeName="y2" values="70;68;70" dur="0.5s" repeatCount="indefinite" />
    </line>
  </g>
</svg>
