<svg xmlns="http://www.w3.org/2000/svg" viewBox="0 0 100 100">
  <defs>
    <radialGradient id="poisonGlow" cx="50%" cy="50%" r="50%" fx="50%" fy="50%">
      <stop offset="0%" style="stop-color:#00ff00;stop-opacity:0.8" />
      <stop offset="100%" style="stop-color:#006400;stop-opacity:0.2" />
    </radialGradient>
  </defs>
  
  <!-- Background -->
  <circle cx="50" cy="50" r="48" fill="#1a1a1a" />
  
  <!-- Poison bottle -->
  <path d="M40 20 L60 20 L65 30 L65 70 Q65 80 50 80 Q35 80 35 70 L35 30 Z" fill="#4a4a4a" stroke="#00ff00" stroke-width="2" />
  
  <!-- Poison liquid -->
  <path d="M38 35 L62 35 L62 70 Q62 77 50 77 Q38 77 38 70 Z" fill="url(#poisonGlow)">
    <animate attributeName="d" 
             values="M38 35 L62 35 L62 70 Q62 77 50 77 Q38 77 38 70 Z;
                     M38 33 L62 33 L62 68 Q62 75 50 75 Q38 75 38 68 Z;
                     M38 35 L62 35 L62 70 Q62 77 50 77 Q38 77 38 70 Z" 
             dur="2s" repeatCount="indefinite" />
  </path>
  
  <!-- Bottle neck -->
  <rect x="45" y="20" width="10" height="10" fill="#4a4a4a" stroke="#00ff00" stroke-width="2" />
  
  <!-- Skull symbol -->
  <path d="M46 50 Q50 45 54 50 Q55 52 54 54 L52 58 L48 58 L46 54 Q45 52 46 50 Z" fill="#ffffff" />
  <circle cx="48" cy="52" r="1" fill="#000000" />
  <circle cx="52" cy="52" r="1" fill="#000000" />
  <path d="M49 55 L51 55 L50 57 Z" fill="#000000" />
  
  <!-- Poison bubbles -->
  <circle cx="45" cy="40" r="2" fill="#00ff00" opacity="0.8">
    <animate attributeName="cy" from="40" to="30" dur="3s" repeatCount="indefinite" />
    <animate attributeName="opacity" from="0.8" to="0" dur="3s" repeatCount="indefinite" />
  </circle>
  <circle cx="55" cy="45" r="2" fill="#00ff00" opacity="0.8">
    <animate attributeName="cy" from="45" to="35" dur="2.5s" repeatCount="indefinite" />
    <animate attributeName="opacity" from="0.8" to="0" dur="2.5s" repeatCount="indefinite" />
  </circle>
</svg>
