<svg xmlns="http://www.w3.org/2000/svg" viewBox="0 0 100 100">
  <defs>
    <radialGradient id="healingGlow" cx="50%" cy="50%" r="50%" fx="50%" fy="50%">
      <stop offset="0%" style="stop-color:#90EE90;stop-opacity:1" />
      <stop offset="70%" style="stop-color:#32CD32;stop-opacity:0.8" />
      <stop offset="100%" style="stop-color:#008000;stop-opacity:0" />
    </radialGradient>
    <filter id="softGlow">
      <feGaussianBlur in="SourceGraphic" stdDeviation="2" />
    </filter>
  </defs>
  
  <!-- Background -->
  <circle cx="50" cy="50" r="48" fill="#F0F8FF" />
  
  <!-- Healing aura -->
  <circle cx="50" cy="50" r="40" fill="url(#healingGlow)" filter="url(#softGlow)">
    <animate attributeName="r" values="38;40;38" dur="3s" repeatCount="indefinite" />
    <animate attributeName="opacity" values="0.8;1;0.8" dur="3s" repeatCount="indefinite" />
  </circle>
  
  <!-- Praying hands -->
  <path d="M40 30 Q50 20 60 30 Q55 40 50 50 Q45 40 40 30 Z" fill="#FFF5EE" stroke="#DEB887" stroke-width="2" />
  
  <!-- Prayer beads -->
  <circle cx="50" cy="55" r="2" fill="#8B4513" />
  <circle cx="55" cy="60" r="2" fill="#8B4513" />
  <circle cx="45" cy="60" r="2" fill="#8B4513" />
  <path d="M50 55 Q55 57 55 60 Q50 63 45 60 Q45 57 50 55" fill="none" stroke="#8B4513" stroke-width="2" />
  
  <!-- Healing sparkles -->
  <g fill="#FFFFFF" filter="url(#softGlow)">
    <circle cx="30" cy="40" r="2">
      <animate attributeName="opacity" values="0;1;0" dur="2s" repeatCount="indefinite" begin="0s" />
    </circle>
    <circle cx="70" cy="40" r="2">
      <animate attributeName="opacity" values="0;1;0" dur="2s" repeatCount="indefinite" begin="0.5s" />
    </circle>
    <circle cx="50" cy="20" r="2">
      <animate attributeName="opacity" values="0;1;0" dur="2s" repeatCount="indefinite" begin="1s" />
    </circle>
    <circle cx="40" cy="70" r="2">
      <animate attributeName="opacity" values="0;1;0" dur="2s" repeatCount="indefinite" begin="1.5s" />
    </circle>
    <circle cx="60" cy="70" r="2">
      <animate attributeName="opacity" values="0;1;0" dur="2s" repeatCount="indefinite" begin="0.75s" />
    </circle>
  </g>
</svg>
